<?xml version="1.0" standalone="no"?>
<!DOCTYPE svg PUBLIC "-//W3C//DTD SVG 20010904//EN"
 "http://www.w3.org/TR/2001/REC-SVG-20010904/DTD/svg10.dtd">
<svg version="1.0" xmlns="http://www.w3.org/2000/svg"
 width="1022.000000pt" height="1022.000000pt" viewBox="0 0 1022.000000 1022.000000"
 preserveAspectRatio="xMidYMid meet">
<metadata>
Created by potrace 1.14, written by Peter Selinger 2001-2017
</metadata>
<g transform="translate(0.000000,1022.000000) scale(0.100000,-0.100000)"
fill="#000000" stroke="none">
<path d="M1105 8996 c-87 -28 -165 -68 -311 -157 l-113 -69 -205 0 -206 0 0
-198 0 -198 -64 -107 c-68 -116 -111 -215 -151 -352 -52 -181 -53 -194 -45
-1700 7 -1369 7 -1391 28 -1476 40 -162 105 -315 193 -455 l39 -61 0 -217 0
-216 229 0 229 0 124 -63 c67 -35 142 -71 166 -79 24 -10 42 -23 42 -32 0 -8
-39 -127 -87 -263 -47 -136 -104 -304 -125 -373 -71 -229 -170 -652 -203 -860
-22 -138 -32 -566 -16 -669 20 -125 90 -222 180 -249 107 -32 128 -18 451 306
403 403 616 642 1299 1461 190 228 380 454 421 503 l75 88 2585 4 c2657 4
3261 12 3407 42 104 21 247 75 361 135 l92 49 275 0 275 0 0 293 0 293 34 71
c42 86 88 220 112 323 17 70 18 177 22 1505 2 1014 0 1447 -8 1490 -18 96 -69
252 -116 356 l-44 96 0 277 0 276 -246 0 -247 0 -61 39 c-137 86 -316 162
-462 196 -58 13 -521 15 -3962 15 l-3897 -1 -70 -23z"/>
</g>
</svg>
